# xmcd
# 
# Track frame offsets:
#     150
#     16628
#     33199
#     50034
#     68249
#     87357
#     101965
#     117676
#     138534
#     157047
#     176224
# 
# Disc length: 2596
# 
# Revision: 1
# Processed by: cddbd v1.5.2PL0 Copyright (c) Steve Scherf et al.
# Submitted via: fre:ac v1.1beta1pre5
# 
DISCID=9d0a220b
DTITLE=the Wolfe Brothers - It's On
DYEAR=2013
DGENRE=Country
TTITLE0=It's On
TTITLE1=One Way State of Mind
TTITLE2=Wake Up
TTITLE3=the Hardest Way
TTITLE4=All We Wanna Do
TTITLE5=Lovin'in the Summertime
TTITLE6=Bad Man Outta Me
TTITLE7=Highway Sky
TTITLE8=the Girl, The Bottle, The Memory
TTITLE9=Dangerous
TTITLE10=High Vis Anthem
EXTD=
EXTT0=
EXTT1=
EXTT2=
EXTT3=
EXTT4=
EXTT5=
EXTT6=
EXTT7=
EXTT8=
EXTT9=
EXTT10=
PLAYORDER=
